<?xml version="1.0" standalone="no"?>
<svg xmlns="http://www.w3.org/2000/svg" viewBox="0 0 177.984 36" width="177.984" height="36"><g fill="#2e3eff" color="#2e3eff" transform="translate(0 3.9999999999999982) scale(0.2800001)"><svg width="100.0" height="100.0" x="0.0" y="0.0" viewBox="0 0 100 100"><g><path fill="currentColor" d="M60.532,7.873c-8.872,0-16.168,6.702-17.122,15.319h-4.058c-0.954-8.617-8.247-15.319-17.118-15.319   C12.712,7.873,5,15.588,5,25.106c0,9.518,7.712,17.234,17.234,17.234c8.198,0,15.046-5.733,16.792-13.404h4.709   c1.747,7.671,8.595,13.404,16.797,13.404c9.518,0,17.233-7.716,17.233-17.234C77.766,15.588,70.05,7.873,60.532,7.873"></path><path fill="currentColor" d="M91.17,40.425c-2.116,0-3.829,1.717-3.829,3.83v2.461l-10.103,2.887c-0.822,0.234-1.388,0.987-1.388,1.84   v8.6c0,0.856,0.565,1.606,1.388,1.842l10.103,2.887v2.461c0,2.113,1.713,3.83,3.829,3.83c2.113,0,3.83-1.717,3.83-3.83V44.255   C95,42.142,93.283,40.425,91.17,40.425"></path><path fill="currentColor" d="M41.383,37.837c-4.144,6.279-11.22,10.248-19.148,10.248c-4.189,0-8.104-1.145-11.489-3.108v18.427   c0,2.115,1.713,3.83,3.829,3.83h15.548L10.745,86.697v5.43h5.396l24.793-24.894h0.976l24.789,24.894h5.322v-5.513L52.719,67.234   h15.473c2.113,0,3.83-1.715,3.83-3.83V44.977c-3.389,1.963-7.305,3.108-11.489,3.108C52.6,48.085,45.523,44.117,41.383,37.837"></path></g></svg></g><path fill="#ffffff" fill-rule="nonzero" d="M7.08 18.38L0 18.38L0 17.23L1.39 17.02Q1.85 16.94 1.99 16.70Q2.14 16.46 2.14 15.79L2.14 15.79L2.14 4.08Q2.14 3.46 1.98 3.25Q1.82 3.05 1.34 2.95L1.34 2.95L0 2.74L0 1.58L5.90 1.58Q8.06 1.58 9.50 2.11Q10.94 2.64 11.65 3.70Q12.36 4.75 12.36 6.34L12.36 6.34Q12.36 7.54 11.93 8.53Q11.50 9.53 10.72 10.25Q9.94 10.97 8.84 11.35Q7.75 11.74 6.41 11.74L6.41 11.74Q5.76 11.74 5.23 11.70Q4.70 11.66 4.51 11.62L4.51 11.62L4.51 15.84Q4.51 16.49 4.69 16.73Q4.87 16.97 5.40 17.04L5.40 17.04L7.08 17.23L7.08 18.38ZM5.90 10.44L5.90 10.44Q7.82 10.44 8.81 9.42Q9.79 8.40 9.79 6.41L9.79 6.41Q9.79 4.56 8.82 3.72Q7.85 2.88 5.74 2.88L5.74 2.88L4.51 2.88L4.51 10.32Q4.70 10.37 5.09 10.40Q5.47 10.44 5.90 10.44ZM20.38 18.38L13.92 18.38L13.92 17.21L15.29 16.99Q15.77 16.92 15.90 16.68Q16.03 16.44 16.03 15.77L16.03 15.77L16.03 9.22Q16.03 8.33 15.88 8.05Q15.72 7.78 15.17 7.70L15.17 7.70L14.02 7.54L14.18 6.34L17.98 6.14L18.26 6.26L18.26 15.86Q18.26 16.46 18.42 16.69Q18.58 16.92 19.03 16.99L19.03 16.99L20.38 17.23L20.38 18.38ZM16.80 3.50L16.80 3.50Q16.10 3.50 15.65 3.06Q15.19 2.62 15.19 1.92L15.19 1.92Q15.19 1.22 15.65 0.77Q16.10 0.31 16.80 0.31L16.80 0.31Q17.52 0.31 17.98 0.76Q18.43 1.20 18.43 1.90L18.43 1.90Q18.43 2.59 17.98 3.05Q17.52 3.50 16.80 3.50ZM27.72 18.72L27.72 18.72Q25.99 18.72 24.72 17.95Q23.45 17.18 22.75 15.78Q22.06 14.38 22.06 12.46L22.06 12.46Q22.06 10.46 22.79 8.99Q23.52 7.51 24.84 6.70Q26.16 5.88 27.91 5.88L27.91 5.88Q29.14 5.88 30.11 6.29Q31.08 6.70 31.64 7.40Q32.21 8.11 32.21 9.02L32.21 9.02Q32.21 9.74 31.78 10.16Q31.34 10.58 30.62 10.58L30.62 10.58Q30.19 10.58 29.87 10.44Q29.54 10.30 29.38 10.04Q29.21 9.79 29.21 9.43L29.21 9.43Q29.21 9.14 29.35 8.78Q29.50 8.42 29.88 7.80L29.88 7.80Q29.42 7.46 28.94 7.34Q28.46 7.22 27.72 7.22L27.72 7.22Q26.78 7.22 26.05 7.82Q25.32 8.42 24.90 9.49Q24.48 10.56 24.48 11.95L24.48 11.95Q24.48 14.23 25.51 15.55Q26.54 16.87 28.32 16.87L28.32 16.87Q29.23 16.87 30.02 16.55Q30.82 16.22 31.42 15.62L31.42 15.62L32.23 16.46Q31.46 17.50 30.26 18.11Q29.06 18.72 27.72 18.72ZM45.60 18.60L45.60 18.60Q44.98 18.60 44.51 18.46Q44.04 18.31 43.58 17.93Q43.13 17.54 42.53 16.82L42.53 16.82L38.47 12L38.47 11.81L42.29 8.38Q42.60 8.11 42.60 7.82Q42.60 7.54 42.29 7.49L42.29 7.49L41.21 7.32L41.42 6.22L46.80 6.22L46.80 7.30L46.10 7.49Q45.70 7.61 45.26 7.84Q44.83 8.06 44.42 8.40L44.42 8.40L40.85 11.42L44.83 15.96Q45.34 16.51 45.73 16.74Q46.13 16.97 46.58 16.97L46.58 16.97Q46.73 16.97 46.92 16.92Q47.11 16.87 47.52 16.78L47.52 16.78L47.76 17.64Q47.30 18.10 46.73 18.35Q46.15 18.60 45.60 18.60ZM39.82 18.38L33.96 18.38L33.96 17.23L35.33 17.02Q35.81 16.94 35.94 16.70Q36.07 16.46 36.07 15.79L36.07 15.79L36.07 2.93Q36.07 2.09 35.89 1.84Q35.71 1.58 35.04 1.49L35.04 1.49L33.98 1.32L34.10 0.12L38.04 0L38.30 0.26L38.30 15.89Q38.30 16.46 38.44 16.69Q38.57 16.92 38.95 17.02L38.95 17.02L39.82 17.21L39.82 18.38ZM56.98 18.72L56.98 18.72Q55.46 18.72 54.54 17.83Q53.62 16.94 53.62 15.48L53.62 15.48Q53.62 14.16 54.28 13.34Q54.94 12.53 56.45 12.11Q57.96 11.69 60.50 11.57L60.50 11.57L60.50 9.94Q60.50 8.45 59.88 7.78Q59.26 7.10 57.91 7.10L57.91 7.10Q57.26 7.10 56.63 7.31Q55.99 7.51 55.70 7.82L55.70 7.82Q56.33 8.86 56.33 9.17L56.33 9.17Q56.33 9.62 55.96 9.94Q55.58 10.25 55.03 10.25L55.03 10.25Q54.38 10.25 54.02 9.92Q53.66 9.60 53.66 9L53.66 9Q53.66 8.16 54.30 7.45Q54.94 6.74 55.98 6.31Q57.02 5.88 58.25 5.88L58.25 5.88Q60.53 5.88 61.63 6.94Q62.74 7.99 62.74 10.20L62.74 10.20L62.74 15.98Q62.74 17.04 63.82 17.04L63.82 17.04Q64.08 17.04 64.34 16.99Q64.61 16.94 64.94 16.85L64.94 16.85L65.18 17.76Q64.75 18.17 64.13 18.44Q63.50 18.72 62.98 18.72L62.98 18.72Q61.94 18.72 61.38 18.18Q60.82 17.64 60.70 16.58L60.70 16.58Q59.35 18.72 56.98 18.72ZM57.89 17.06L57.89 17.06Q59.02 17.06 59.76 16.33Q60.50 15.60 60.50 14.52L60.50 14.52L60.50 12.82Q58.18 12.82 57.06 13.40Q55.94 13.99 55.94 15.22L55.94 15.22Q55.94 16.08 56.47 16.57Q57 17.06 57.89 17.06ZM77.52 18.38L71.62 18.38L71.62 17.23L72.98 17.02Q73.49 16.94 73.60 16.63Q73.70 16.32 73.73 15.79L73.73 15.79L74.45 4.08Q74.45 3.46 74.30 3.25Q74.16 3.05 73.68 2.95L73.68 2.95L72.34 2.74L72.34 1.58L77.90 1.58L82.01 13.75L82.10 13.51L86.40 1.58L91.94 1.58L91.94 2.74L90.43 2.95Q90 3 89.86 3.25Q89.71 3.50 89.71 4.18L89.71 4.18L90.43 15.89Q90.43 16.49 90.59 16.70Q90.74 16.92 91.20 17.02L91.20 17.02L92.66 17.23L92.66 18.38L85.82 18.38L85.82 17.23L87.31 17.02Q87.77 16.94 87.91 16.70Q88.06 16.46 88.06 15.79L88.06 15.79L87.34 3.65L87.34 3.46L82.85 15.67L80.45 15.67L76.13 3.43L76.13 3.62L75.41 15.89Q75.38 16.49 75.53 16.70Q75.67 16.92 76.18 17.02L76.18 17.02L77.52 17.23L77.52 18.38ZM101.11 18.72L101.11 18.72Q99.34 18.72 98.02 17.96Q96.70 17.21 95.99 15.83Q95.28 14.45 95.28 12.58L95.28 12.58Q95.28 10.51 96.02 9.01Q96.77 7.51 98.16 6.70Q99.55 5.88 101.45 5.88L101.45 5.88Q103.20 5.88 104.47 6.62Q105.74 7.37 106.44 8.74Q107.14 10.10 107.14 11.98L107.14 11.98Q107.14 14.02 106.39 15.54Q105.65 17.06 104.30 17.89Q102.96 18.72 101.11 18.72ZM101.45 17.23L101.45 17.23Q103.01 17.23 103.85 16.02Q104.69 14.81 104.69 12.55L104.69 12.55Q104.69 10.13 103.72 8.71Q102.74 7.30 101.06 7.30L101.06 7.30Q99.46 7.30 98.58 8.47Q97.70 9.65 97.70 11.86L97.70 11.86Q97.70 14.38 98.70 15.80Q99.70 17.23 101.45 17.23ZM116.45 18.38L114.14 18.38L110.42 8.81Q110.18 8.18 110.03 7.94Q109.87 7.70 109.37 7.58L109.37 7.58L108.53 7.39L108.77 6.22L114.48 6.22L114.48 7.32L113.33 7.49Q112.85 7.56 112.74 7.81Q112.63 8.06 112.87 8.69L112.87 8.69L115.66 16.39L115.78 16.39L118.54 8.86Q118.75 8.23 118.63 7.96Q118.51 7.68 117.98 7.56L117.98 7.56L116.93 7.32L117.17 6.22L122.16 6.22L122.16 7.34L121.27 7.54Q120.84 7.63 120.65 7.85Q120.46 8.06 120.17 8.83L120.17 8.83L116.45 18.38ZM129.86 18.38L123.41 18.38L123.41 17.21L124.78 16.99Q125.26 16.92 125.39 16.68Q125.52 16.44 125.52 15.77L125.52 15.77L125.52 9.22Q125.52 8.33 125.36 8.05Q125.21 7.78 124.66 7.70L124.66 7.70L123.50 7.54L123.67 6.34L127.46 6.14L127.75 6.26L127.75 15.86Q127.75 16.46 127.91 16.69Q128.06 16.92 128.52 16.99L128.52 16.99L129.86 17.23L129.86 18.38ZM126.29 3.50L126.29 3.50Q125.59 3.50 125.14 3.06Q124.68 2.62 124.68 1.92L124.68 1.92Q124.68 1.22 125.14 0.77Q125.59 0.31 126.29 0.31L126.29 0.31Q127.01 0.31 127.46 0.76Q127.92 1.20 127.92 1.90L127.92 1.90Q127.92 2.59 127.46 3.05Q127.01 3.50 126.29 3.50ZM137.28 18.72L137.28 18.72Q135.53 18.72 134.24 17.95Q132.96 17.18 132.25 15.77Q131.54 14.35 131.54 12.46L131.54 12.46Q131.54 10.46 132.28 8.99Q133.01 7.51 134.33 6.70Q135.65 5.88 137.40 5.88L137.40 5.88Q139.39 5.88 140.60 7.04Q141.82 8.21 141.82 10.13L141.82 10.13Q141.82 10.63 141.73 11.23Q141.65 11.83 141.48 12.48L141.48 12.48L133.97 12.48Q134.04 14.59 135.06 15.77Q136.08 16.94 137.83 16.94L137.83 16.94Q138.74 16.94 139.61 16.56Q140.47 16.18 141.14 15.50L141.14 15.50L141.98 16.34Q141.46 17.06 140.70 17.60Q139.94 18.14 139.07 18.43Q138.19 18.72 137.28 18.72ZM133.97 11.14L133.97 11.14L139.49 11.14Q139.54 10.90 139.55 10.62Q139.56 10.34 139.56 10.03L139.56 10.03Q139.56 8.62 138.95 7.88Q138.34 7.15 137.14 7.15L137.14 7.15Q135.77 7.15 134.96 8.17Q134.16 9.19 133.97 11.14Z" transform="translate(36, 8.808)"></path></svg>