<?xml version="1.0" standalone="no"?>
<svg xmlns="http://www.w3.org/2000/svg" viewBox="0 0 175.992 36" width="175.992" height="36"><g fill="#0c4be3" color="#0c4be3" transform="translate(147.992, 3.9999999999999982) scale(0.2800001)"><svg width="100.0" height="100.0" x="0.0" y="0.0" viewBox="0 0 100 100"><g><path fill="currentColor" d="M60.532,7.873c-8.872,0-16.168,6.702-17.122,15.319h-4.058c-0.954-8.617-8.247-15.319-17.118-15.319   C12.712,7.873,5,15.588,5,25.106c0,9.518,7.712,17.234,17.234,17.234c8.198,0,15.046-5.733,16.792-13.404h4.709   c1.747,7.671,8.595,13.404,16.797,13.404c9.518,0,17.233-7.716,17.233-17.234C77.766,15.588,70.05,7.873,60.532,7.873"></path><path fill="currentColor" d="M91.17,40.425c-2.116,0-3.829,1.717-3.829,3.83v2.461l-10.103,2.887c-0.822,0.234-1.388,0.987-1.388,1.84   v8.6c0,0.856,0.565,1.606,1.388,1.842l10.103,2.887v2.461c0,2.113,1.713,3.83,3.829,3.83c2.113,0,3.83-1.717,3.83-3.83V44.255   C95,42.142,93.283,40.425,91.17,40.425"></path><path fill="currentColor" d="M41.383,37.837c-4.144,6.279-11.22,10.248-19.148,10.248c-4.189,0-8.104-1.145-11.489-3.108v18.427   c0,2.115,1.713,3.83,3.829,3.83h15.548L10.745,86.697v5.43h5.396l24.793-24.894h0.976l24.789,24.894h5.322v-5.513L52.719,67.234   h15.473c2.113,0,3.83-1.715,3.83-3.83V44.977c-3.389,1.963-7.305,3.108-11.489,3.108C52.6,48.085,45.523,44.117,41.383,37.837"></path></g></svg></g><path fill="#000000" fill-rule="nonzero" d="M1.08 17.76Q0.62 17.76 0.31 17.45Q0 17.14 0 16.68L0 16.68L0 1.99Q0 1.54 0.31 1.21Q0.62 0.89 1.08 0.89L1.08 0.89L6.55 0.89Q8.83 0.89 10.27 1.66Q11.71 2.42 12.34 3.62Q12.96 4.82 12.96 6.22L12.96 6.22Q12.96 7.61 12.34 8.81Q11.71 10.01 10.27 10.78Q8.83 11.54 6.55 11.54L6.55 11.54L2.18 11.54L2.18 16.68Q2.18 17.14 1.86 17.45Q1.54 17.76 1.08 17.76L1.08 17.76ZM2.18 9.48L6.34 9.48Q8.78 9.48 9.78 8.54Q10.78 7.61 10.78 6.22L10.78 6.22Q10.78 4.82 9.78 3.89Q8.78 2.95 6.34 2.95L6.34 2.95L2.18 2.95L2.18 9.48ZM16.54 2.90Q16.03 2.90 15.67 2.54Q15.31 2.18 15.31 1.68L15.31 1.68L15.31 1.58Q15.31 1.08 15.67 0.72Q16.03 0.36 16.54 0.36L16.54 0.36L16.68 0.36Q17.18 0.36 17.54 0.72Q17.90 1.08 17.90 1.58L17.90 1.58L17.90 1.68Q17.90 2.18 17.54 2.54Q17.18 2.90 16.68 2.90L16.68 2.90L16.54 2.90ZM16.58 17.76Q16.13 17.76 15.82 17.45Q15.50 17.14 15.50 16.68L15.50 16.68L15.50 6.38Q15.50 5.93 15.82 5.60Q16.13 5.28 16.58 5.28L16.58 5.28Q17.06 5.28 17.38 5.59Q17.69 5.90 17.69 6.38L17.69 6.38L17.69 16.68Q17.69 17.14 17.36 17.45Q17.04 17.76 16.58 17.76L16.58 17.76ZM27.14 17.88Q25.42 17.88 23.95 17.11Q22.49 16.34 21.61 14.90Q20.74 13.46 20.74 11.52L20.74 11.52Q20.74 9.58 21.61 8.14Q22.49 6.70 23.95 5.93Q25.42 5.16 27.14 5.16L27.14 5.16Q28.42 5.16 29.34 5.48Q30.26 5.81 31.06 6.31L31.06 6.31Q31.54 6.62 31.54 7.15L31.54 7.15Q31.54 7.51 31.26 7.81Q30.98 8.11 30.62 8.11L30.62 8.11Q30.36 8.11 30.10 7.97L30.10 7.97Q29.30 7.56 28.74 7.38Q28.18 7.20 27.34 7.20L27.34 7.20Q25.27 7.20 24.10 8.39Q22.92 9.58 22.92 11.52L22.92 11.52Q22.92 13.46 24.10 14.65Q25.27 15.84 27.34 15.84L27.34 15.84Q28.18 15.84 28.74 15.66Q29.30 15.48 30.10 15.07L30.10 15.07Q30.36 14.93 30.62 14.93L30.62 14.93Q30.98 14.93 31.26 15.23Q31.54 15.53 31.54 15.89L31.54 15.89Q31.54 16.42 31.06 16.73L31.06 16.73Q30.26 17.23 29.34 17.56Q28.42 17.88 27.14 17.88L27.14 17.88ZM35.35 17.76Q34.90 17.76 34.58 17.45Q34.27 17.14 34.27 16.68L34.27 16.68L34.27 1.10Q34.27 0.65 34.58 0.32Q34.90 0 35.35 0L35.35 0Q35.81 0 36.13 0.32Q36.46 0.65 36.46 1.10L36.46 1.10L36.46 10.92L42.17 5.64Q42.53 5.33 42.89 5.33L42.89 5.33Q43.44 5.33 43.69 5.64Q43.94 5.95 43.94 6.38L43.94 6.38Q43.94 6.79 43.54 7.20L43.54 7.20L40.08 10.30L44.42 16.06Q44.66 16.37 44.66 16.70L44.66 16.70Q44.66 17.18 44.35 17.47Q44.04 17.76 43.56 17.76L43.56 17.76Q43.32 17.76 43.08 17.64Q42.84 17.52 42.67 17.30L42.67 17.30L38.54 11.69L36.46 13.58L36.46 16.68Q36.46 17.14 36.13 17.45Q35.81 17.76 35.35 17.76L35.35 17.76ZM56.71 17.88Q55.66 17.88 54.76 17.45Q53.86 17.02 53.33 16.19Q52.80 15.36 52.80 14.28L52.80 14.28Q52.80 12.50 54.20 11.45Q55.61 10.39 58.32 10.39L58.32 10.39L61.22 10.39L61.22 10.20Q61.22 8.62 60.44 7.92Q59.66 7.22 58.01 7.22L58.01 7.22Q57.10 7.22 56.39 7.37Q55.68 7.51 54.82 7.80L54.82 7.80Q54.62 7.85 54.50 7.85L54.50 7.85Q54.14 7.85 53.88 7.58Q53.62 7.32 53.62 6.94L53.62 6.94Q53.62 6.29 54.24 6.02L54.24 6.02Q56.28 5.16 58.39 5.16L58.39 5.16Q60.05 5.16 61.19 5.83Q62.33 6.50 62.87 7.57Q63.41 8.64 63.41 9.89L63.41 9.89L63.41 16.68Q63.41 17.14 63.08 17.45Q62.76 17.76 62.30 17.76L62.30 17.76Q61.85 17.76 61.54 17.45Q61.22 17.14 61.22 16.68L61.22 16.68L61.22 16.06Q59.45 17.88 56.71 17.88L56.71 17.88ZM57.53 15.96Q58.58 15.96 59.57 15.44Q60.55 14.93 61.22 14.16L61.22 14.16L61.22 12.14L58.61 12.14Q54.98 12.14 54.98 14.04L54.98 14.04Q54.98 14.90 55.57 15.43Q56.16 15.96 57.53 15.96L57.53 15.96ZM74.83 17.76Q74.38 17.76 74.06 17.45Q73.75 17.14 73.75 16.68L73.75 16.68L73.75 2.35Q73.75 1.70 74.21 1.24Q74.66 0.77 75.31 0.77L75.31 0.77L76.10 0.77Q76.58 0.77 76.98 1.06Q77.38 1.34 77.57 1.78L77.57 1.78L83.02 15.36L88.46 1.78Q88.66 1.34 89.05 1.06Q89.45 0.77 89.93 0.77L89.93 0.77L90.72 0.77Q91.37 0.77 91.82 1.24Q92.28 1.70 92.28 2.35L92.28 2.35L92.28 16.68Q92.28 17.14 91.97 17.45Q91.66 17.76 91.20 17.76L91.20 17.76Q90.74 17.76 90.42 17.45Q90.10 17.14 90.10 16.68L90.10 16.68L90.10 3.05L84.55 16.75Q84.36 17.21 83.94 17.48Q83.52 17.76 83.02 17.76L83.02 17.76Q82.51 17.76 82.09 17.48Q81.67 17.21 81.48 16.75L81.48 16.75L75.94 3.05L75.94 16.68Q75.94 17.14 75.61 17.45Q75.29 17.76 74.83 17.76L74.83 17.76ZM101.57 17.88Q99.72 17.88 98.33 17.09Q96.94 16.30 96.18 14.84Q95.42 13.39 95.42 11.52L95.42 11.52Q95.42 9.65 96.18 8.20Q96.94 6.74 98.33 5.95Q99.72 5.16 101.57 5.16L101.57 5.16Q103.39 5.16 104.78 5.95Q106.18 6.74 106.94 8.20Q107.71 9.65 107.71 11.52L107.71 11.52Q107.71 13.39 106.94 14.84Q106.18 16.30 104.78 17.09Q103.39 17.88 101.57 17.88L101.57 17.88ZM101.57 15.89Q102.55 15.89 103.45 15.43Q104.35 14.98 104.94 13.99Q105.53 13.01 105.53 11.50L105.53 11.50Q105.53 10.01 104.94 9.02Q104.35 8.04 103.45 7.60Q102.55 7.15 101.57 7.15L101.57 7.15Q100.56 7.15 99.66 7.60Q98.76 8.04 98.18 9.02Q97.61 10.01 97.61 11.50L97.61 11.50Q97.61 13.01 98.18 13.99Q98.76 14.98 99.66 15.43Q100.56 15.89 101.57 15.89L101.57 15.89ZM114.94 17.76Q114.50 17.76 114.14 17.51Q113.78 17.26 113.62 16.87L113.62 16.87L109.44 6.89Q109.32 6.60 109.32 6.38L109.32 6.38Q109.32 5.93 109.63 5.60Q109.94 5.28 110.40 5.28L110.40 5.28Q110.71 5.28 110.99 5.46Q111.26 5.64 111.38 5.90L111.38 5.90L115.06 15.22L118.73 5.90Q118.85 5.64 119.12 5.46Q119.40 5.28 119.71 5.28L119.71 5.28Q120.17 5.28 120.48 5.60Q120.79 5.93 120.79 6.38L120.79 6.38Q120.79 6.60 120.67 6.89L120.67 6.89L116.50 16.87Q116.33 17.26 115.97 17.51Q115.61 17.76 115.18 17.76L115.18 17.76L114.94 17.76ZM124.34 2.90Q123.84 2.90 123.48 2.54Q123.12 2.18 123.12 1.68L123.12 1.68L123.12 1.58Q123.12 1.08 123.48 0.72Q123.84 0.36 124.34 0.36L124.34 0.36L124.49 0.36Q124.99 0.36 125.35 0.72Q125.71 1.08 125.71 1.58L125.71 1.58L125.71 1.68Q125.71 2.18 125.35 2.54Q124.99 2.90 124.49 2.90L124.49 2.90L124.34 2.90ZM124.39 17.76Q123.94 17.76 123.62 17.45Q123.31 17.14 123.31 16.68L123.31 16.68L123.31 6.38Q123.31 5.93 123.62 5.60Q123.94 5.28 124.39 5.28L124.39 5.28Q124.87 5.28 125.18 5.59Q125.50 5.90 125.50 6.38L125.50 6.38L125.50 16.68Q125.50 17.14 125.17 17.45Q124.85 17.76 124.39 17.76L124.39 17.76ZM134.76 17.88Q131.83 17.88 130.19 16.21Q128.54 14.54 128.54 11.52L128.54 11.52Q128.54 9.82 129.17 8.38Q129.79 6.94 131.09 6.05Q132.38 5.16 134.28 5.16L134.28 5.16Q136.06 5.16 137.35 5.99Q138.65 6.82 139.32 8.20Q139.99 9.58 139.99 11.21L139.99 11.21Q139.99 11.66 139.69 11.98Q139.39 12.29 138.89 12.29L138.89 12.29L130.75 12.29Q130.94 13.97 132.00 14.90Q133.06 15.84 134.95 15.84L134.95 15.84Q135.96 15.84 136.72 15.65Q137.47 15.46 138.19 15.10L138.19 15.10Q138.38 15 138.62 15L138.62 15Q139.01 15 139.30 15.26Q139.58 15.53 139.58 15.94L139.58 15.94Q139.58 16.46 138.96 16.82L138.96 16.82Q138.02 17.35 137.11 17.62Q136.20 17.88 134.76 17.88L134.76 17.88ZM130.75 10.51L137.83 10.51Q137.76 9.34 137.22 8.54Q136.68 7.75 135.89 7.38Q135.10 7.01 134.28 7.01L134.28 7.01Q133.46 7.01 132.67 7.38Q131.88 7.75 131.35 8.54Q130.82 9.34 130.75 10.51L130.75 10.51Z" transform="translate(0, 9.06)"></path></svg>